<svg xmlns="http://www.w3.org/2000/svg" viewBox="0 0 100 100">
  <defs>
    <mask id="mask">
      <rect width="100" height="100" fill="white"/>
      <!-- Snake shape -->
      <rect x="10" y="10" width="8" height="8" fill="black"/>
      <rect x="18" y="10" width="8" height="8" fill="black"/>
      <rect x="26" y="10" width="8" height="8" fill="black"/>
      <rect x="26" y="18" width="8" height="8" fill="black"/>
      <rect x="26" y="26" width="8" height="8" fill="black"/>
      <rect x="18" y="26" width="8" height="8" fill="black"/>
      <rect x="10" y="26" width="8" height="8" fill="black"/>
      <!-- Grid -->
      <rect x="50" y="10" width="8" height="8" fill="black"/>
      <rect x="58" y="10" width="8" height="8" fill="black"/>
      <rect x="66" y="10" width="8" height="8" fill="black"/>
      <rect x="50" y="18" width="8" height="8" fill="black"/>
      <rect x="58" y="18" width="8" height="8" fill="black"/>
      <rect x="66" y="18" width="8" height="8" fill="black"/>
      <rect x="50" y="26" width="8" height="8" fill="black"/>
      <rect x="58" y="26" width="8" height="8" fill="black"/>
      <rect x="66" y="26" width="8" height="8" fill="black"/>
      <!-- Text area -->
      <rect x="20" y="50" width="60" height="8" fill="black"/>
      <rect x="30" y="65" width="40" height="12" fill="black"/>
    </mask>
  </defs>
  <rect width="100" height="100" fill="black" mask="url(#mask)"/>
</svg>
